HIERARCHY
ROOT root
{
	OFFSET	0	13.1	24.9
	CHANNELS 6  Xposition Yposition Zposition Xrotation Yrotation Zrotation
	JOINT spine_1
	{
		OFFSET	0	9.99999	0
		CHANNELS 3  Xrotation Yrotation Zrotation
		JOINT spine_2
		{
			OFFSET	0	112	-10
			CHANNELS 3  Xrotation Yrotation Zrotation
			JOINT spine_3
			{
				OFFSET	0	206.5	19.3
				CHANNELS 3  Xrotation Yrotation Zrotation
				JOINT spine_4
				{
					OFFSET	0	110.4	14.6
					CHANNELS 3  Xrotation Yrotation Zrotation
					JOINT neck_1
					{
						OFFSET	0	71.8	-50.3
						CHANNELS 3  Xrotation Yrotation Zrotation
						JOINT neck_2
						{
							OFFSET	0	86.2	-25.8
							CHANNELS 3  Xrotation Yrotation Zrotation
							JOINT head_ee
							{
								OFFSET	0	179.8	-8.7
								CHANNELS 3  Xrotation Yrotation Zrotation
								End Site
								{
									OFFSET	1	0	0
								}
							}
						}
					}
					JOINT left_clavicle
					{
						OFFSET	-43.2	22.4	-70.8
						CHANNELS 3  Xrotation Yrotation Zrotation
						JOINT left_shoulder
						{
							OFFSET	-93.9	-5.79999	48.7
							CHANNELS 3  Xrotation Yrotation Zrotation
							JOINT left_elbow
							{
								OFFSET	-291.4	-30.8	15.2
								CHANNELS 3  Xrotation Yrotation Zrotation
								JOINT left_lowarm_twist
								{
									OFFSET	-110.7	-3.89999	13.6
									CHANNELS 3  Xrotation Yrotation Zrotation
									JOINT left_hand
									{
										OFFSET	-110.7	-3.89999	13.6
										CHANNELS 3  Xrotation Yrotation Zrotation
										JOINT left_ee
										{
											OFFSET	-80.8	-5.10001	12.1
											CHANNELS 3  Xrotation Yrotation Zrotation
											End Site
											{
												OFFSET	1	0	0
											}
										}
									}
								}
							}
						}
					}
					JOINT right_clavicle
					{
						OFFSET	43.2	22.4	-70.8
						CHANNELS 3  Xrotation Yrotation Zrotation
						JOINT right_shoulder
						{
							OFFSET	93.9	-5.79999	48.7
							CHANNELS 3  Xrotation Yrotation Zrotation
							JOINT right_elbow
							{
								OFFSET	291.4	-30.8	15.2
								CHANNELS 3  Xrotation Yrotation Zrotation
								JOINT right_lowarm_twist
								{
									OFFSET	110.7	-3.89999	13.6
									CHANNELS 3  Xrotation Yrotation Zrotation
									JOINT right_hand
									{
										OFFSET	110.7	-3.89999	13.6
										CHANNELS 3  Xrotation Yrotation Zrotation
										JOINT right_ee
										{
											OFFSET	80.8	-5.10001	12.1
											CHANNELS 3  Xrotation Yrotation Zrotation
											End Site
											{
												OFFSET	1	0	0
											}
										}
									}
								}
							}
						}
					}
				}
			}
		}
	}
	JOINT left_hip
	{
		OFFSET	-82.8	-127.5	0.300001
		CHANNELS 3  Xrotation Yrotation Zrotation
		JOINT left_knee
		{
			OFFSET	-28.2	-396.7	2.2
			CHANNELS 3  Xrotation Yrotation Zrotation
			JOINT left_ankle
			{
				OFFSET	-11.7	-411.3	35.4
				CHANNELS 3  Xrotation Yrotation Zrotation
				JOINT left_toes
				{
					OFFSET	0	-60	-88.6
					CHANNELS 3  Xrotation Yrotation Zrotation
					JOINT left_foot_ee
					{
						OFFSET	-22.5	-16.5	-42.2
						CHANNELS 3  Xrotation Yrotation Zrotation
						End Site
						{
							OFFSET	1	0	0
						}
					}
				}
			}
		}
	}
	JOINT right_hip
	{
		OFFSET	82.8	-127.5	0.300001
		CHANNELS 3  Xrotation Yrotation Zrotation
		JOINT right_knee
		{
			OFFSET	28.2	-396.7	2.2
			CHANNELS 3  Xrotation Yrotation Zrotation
			JOINT right_ankle
			{
				OFFSET	11.7	-411.3	35.4
				CHANNELS 3  Xrotation Yrotation Zrotation
				JOINT right_toes
				{
					OFFSET	0	-60	-88.6
					CHANNELS 3  Xrotation Yrotation Zrotation
					JOINT right_foot_ee
					{
						OFFSET	22.5	-16.5	-42.2
						CHANNELS 3  Xrotation Yrotation Zrotation
						End Site
						{
							OFFSET	1	0	0
						}
					}
				}
			}
		}
	}
}
MOTION
Frames: 5
Frame Time: 0.02
885.024 708.422 -1201.22 167.144 -65.9962 174.071 -3.06441 -0.584037 -2.95084 -3.05965 -0.395169 -2.98199 -3.03223 0.398849 -2.9815 -3.04463 -0.0768073 -3.00705 -2.25937 -1.23348 4.97512 -2.15575 -6.159 5.05875 -0.0 0.0 -0.0 4.14041 1.28009 8.04741 1.63486 -25.0466 61.6358 3.2027 -57.7636 1.76698 21.5455 0.249476 -2.72476 -0.358805 0.243765 -2.29229 -0.0 0.0 -0.0 2.09146 2.15891 -3.84802 -17.5947 4.84694 -67.9165 0.673803 18.4582 -0.109485 -46.0651 3.61804 -4.46145 1.80381 -11.9955 -16.6158 0.0 0.0 0.0 -27.385 1.7884 -7.66002 -5.84394 0.19612 0.875043 9.33864 7.37198 -1.33047 7.30951 -0.0 -0.0 -0.0 0.0 -0.0 14.3873 31.6206 -6.42188 3.21155 0.145513 0.471231 11.9117 -23.9849 1.75127 -39.1469 0.0 0.0 0.0 0.0 0.0 
902.89 713.729 -1191.06 171.025 -66.5225 177.69 -2.81728 -0.524602 -3.06269 -2.81213 -0.328747 -3.08983 -2.78758 0.478185 -3.07028 -2.80073 -0.0124661 -3.10723 -1.56562 -3.83066 1.22172 -1.52115 -7.87313 0.810584 -0.0 0.0 -0.0 4.09454 0.118034 7.90531 -0.34873 -25.0382 61.635 3.18357 -57.6087 1.75081 19.9129 0.266657 -2.51694 -0.237358 4.1006 0.153568 -0.0 0.0 -0.0 2.40826 2.14871 -4.47089 -16.1927 7.07762 -67.1744 0.572179 15.825 -0.0795245 -48.1153 3.85257 -4.58072 1.77462 -13.7181 -17.0059 0.0 0.0 0.0 -25.5385 1.08928 -7.09499 -5.45597 0.185877 0.816384 3.55996 12.6107 -0.517728 9.55808 -0.0 -0.0 -0.0 0.0 -0.0 14.6077 31.1603 -6.95068 4.67968 0.2208 0.683837 11.2388 -25.4758 1.66915 -40.1155 0.0 0.0 0.0 0.0 0.0 
916.767 718.089 -1183.17 170.622 -66.5029 177.312 -2.76307 -0.44412 -3.00063 -2.7581 -0.252372 -3.02278 -2.73848 0.532231 -2.98627 -2.75092 0.054152 -3.03281 -2.52287 -4.56447 0.96489 -2.47772 -9.02812 0.378478 -0.0 0.0 -0.0 4.03892 0.900153 7.83508 -0.513583 -23.3273 63.1814 3.05676 -56.5474 1.64437 22.607 0.23513 -2.85959 0.061781 0.89419 0.787984 -0.0 0.0 -0.0 2.42208 2.14696 -4.49817 -15.8022 6.4726 -66.8957 0.649516 17.8357 -0.10192 -47.2943 3.75814 -4.53396 1.74927 -10.1761 -15.6185 0.0 0.0 0.0 -24.3703 -0.799345 -7.60992 -9.67968 0.275917 1.45814 -2.00221 8.77429 0.294347 15.9958 -0.0 -0.0 -0.0 0.0 -0.0 14.4915 30.2275 -7.59354 2.70549 0.12083 0.397517 16.1587 -26.0492 2.36703 -40.2067 0.0 0.0 0.0 0.0 0.0 
941.185 721.933 -1171.7 169.321 -66.0664 176.105 -2.79118 -0.60991 -3.08887 -2.78596 -0.41222 -3.12137 -2.7564 0.403842 -3.12247 -2.76999 -0.0941089 -3.14704 -1.74836 -6.11274 0.910876 -1.66437 -11.7474 0.182063 -0.0 0.0 -0.0 3.78089 0.77603 7.33255 -3.21898 -21.8552 64.5978 3.03311 -56.3425 1.62465 24.9011 0.19561 -3.14995 -0.429883 6.38913 -0.140163 -0.0 0.0 -0.0 2.78965 2.28366 -5.21021 -14.5149 6.99409 -65.4453 0.604604 16.6733 -0.0885977 -49.7517 4.04272 -4.66986 0.986316 -10.1822 -10.5896 0.0 0.0 0.0 -21.995 -1.73163 -6.58637 -16.334 0.321274 2.47756 -10.8256 19.8185 1.64658 20.8747 -0.0 -0.0 -0.0 0.0 -0.0 14.9137 27.9417 -9.28157 -2.38789 -0.0909275 -0.355155 25.826 -25.5367 3.62143 -40.2207 0.0 0.0 0.0 0.0 0.0 
956.844 723.248 -1152.26 169.181 -65.7709 175.759 -2.70811 -0.297798 -3.01235 -2.70307 -0.1056 -3.02518 -2.69161 0.672471 -2.95145 -2.70371 0.198128 -3.02054 0.0400418 -6.66833 -1.2257 0.120661 -10.881 -2.01637 -0.0 0.0 -0.0 3.80243 -0.153901 7.32518 -4.68915 -21.4948 64.0548 2.73494 -53.5588 1.38048 23.4363 0.222187 -2.96472 -0.133133 5.45142 1.40559 -0.0 0.0 -0.0 3.01285 3.45097 -5.56593 -13.1479 7.58916 -66.4781 0.597297 16.4828 -0.086513 -50.1877 4.0938 -4.69269 1.13867 -11.1786 -11.9517 0.0 0.0 0.0 -19.9198 -6.16803 -5.84182 -21.9455 0.267453 3.33653 -18.0269 19.0512 2.75238 21.1863 -0.0 -0.0 -0.0 0.0 -0.0 15.0921 29.7231 -10.0689 -5.05567 -0.174893 -0.755933 29.5451 -23.2053 4.01398 -40.1437 0.0 0.0 0.0 0.0 0.0 
